<svg xmlns="http://www.w3.org/2000/svg" xmlns:xlink="http://www.w3.org/1999/xlink" width="500" zoomAndPan="magnify" viewBox="0 0 375 374.999991" height="500" preserveAspectRatio="xMidYMid meet" version="1.0"><defs><g/><clipPath id="8d63ff799e"><path d="M 9.140625 0 L 366.140625 0 L 366.140625 375 L 9.140625 375 Z M 9.140625 0 " clip-rule="nonzero"/></clipPath></defs><g clip-path="url(#8d63ff799e)"><path fill="#000000" d="M 366.054688 218.308594 C 366.054688 190.957031 366.054688 163.601562 366.054688 136.242188 C 366.054688 125.28125 366.054688 114.320312 366.054688 103.359375 C 366.054688 83.0625 366.054688 62.082031 366.054688 41.453125 C 366.054688 25.03125 355.75 14.8125 339.238281 14.8125 L 302.835938 14.8125 C 302.835938 13.984375 302.835938 13.195312 302.835938 12.421875 C 302.835938 10.644531 302.835938 8.960938 302.835938 7.292969 C 302.683594 3.03125 299.976562 0.0546875 296.167969 0.0546875 L 295.949219 0.0546875 C 292.140625 0.167969 289.703125 2.992188 289.589844 7.4375 C 289.589844 9.113281 289.589844 10.757812 289.589844 12.5 C 289.589844 13.214844 289.589844 13.925781 289.589844 14.648438 L 85.007812 14.648438 C 85.007812 13.851562 85.007812 13.0625 85.007812 12.28125 C 85.007812 10.378906 85.007812 8.597656 85.007812 6.78125 C 84.84375 2.824219 82.148438 0.0625 78.339844 0.0625 L 78.265625 0.0625 C 74.53125 0.0625 71.847656 2.917969 71.742188 6.988281 C 71.742188 8.722656 71.742188 10.472656 71.742188 12.320312 C 71.742188 13.117188 71.742188 13.945312 71.742188 14.800781 L 47.382812 14.800781 C 42.460938 14.800781 38.382812 14.800781 34.539062 14.800781 C 20.84375 14.878906 10.84375 23.792969 9.644531 36.972656 C 9.152344 43.644531 9 50.324219 9.1875 57.011719 C 9.1875 59.207031 9.234375 61.484375 9.234375 63.671875 C 9.207031 161.761719 9.207031 258.890625 9.207031 349.207031 C 9.207031 361.703125 16.464844 371.246094 28.136719 374.097656 C 31.125 374.769531 34.152344 375.070312 37.214844 375.003906 C 97.003906 375.003906 157.796875 375.003906 216.597656 375.003906 L 338.324219 375.003906 C 346.894531 375.003906 353.921875 372.480469 358.722656 367.722656 C 363.523438 362.964844 366.074219 355.90625 366.074219 347.382812 C 366.074219 304.386719 366.066406 261.363281 366.054688 218.308594 Z M 289.808594 54.003906 C 290.015625 57.894531 292.664062 60.664062 296.214844 60.75 L 296.378906 60.75 C 300.054688 60.75 302.691406 58.046875 302.929688 54.011719 C 303.007812 52.710938 302.988281 51.425781 302.929688 50.074219 C 302.929688 49.609375 302.929688 49.121094 302.929688 48.648438 C 305.472656 50.121094 306.921875 53.613281 306.40625 57.125 C 306.324219 57.675781 306.195312 58.21875 306.023438 58.75 C 305.855469 59.28125 305.640625 59.796875 305.386719 60.292969 C 305.132812 60.789062 304.839844 61.261719 304.507812 61.710938 C 304.175781 62.160156 303.8125 62.582031 303.410156 62.96875 C 303.011719 63.359375 302.582031 63.714844 302.125 64.035156 C 301.667969 64.355469 301.1875 64.636719 300.6875 64.878906 C 300.183594 65.121094 299.664062 65.320312 299.128906 65.480469 C 298.59375 65.636719 298.046875 65.753906 297.492188 65.820312 C 297.085938 65.878906 296.675781 65.90625 296.265625 65.90625 C 295.292969 65.894531 294.347656 65.742188 293.417969 65.460938 C 292.492188 65.175781 291.621094 64.769531 290.808594 64.238281 C 290 63.707031 289.277344 63.074219 288.644531 62.339844 C 288.011719 61.605469 287.496094 60.792969 287.09375 59.914062 C 285.304688 55.953125 286.304688 51.652344 289.761719 48.332031 C 289.761719 48.933594 289.761719 49.503906 289.761719 50.046875 C 289.75 51.492188 289.730469 52.746094 289.808594 54.003906 Z M 71.742188 48.4375 C 71.742188 49.019531 71.742188 49.558594 71.742188 50.09375 C 71.742188 51.539062 71.742188 52.785156 71.742188 54.050781 C 71.75 54.484375 71.800781 54.910156 71.894531 55.332031 C 71.984375 55.753906 72.113281 56.164062 72.28125 56.558594 C 72.453125 56.957031 72.65625 57.335938 72.894531 57.691406 C 73.136719 58.050781 73.410156 58.382812 73.710938 58.691406 C 74.015625 58.996094 74.34375 59.273438 74.699219 59.515625 C 75.058594 59.761719 75.433594 59.96875 75.828125 60.144531 C 76.222656 60.316406 76.632812 60.449219 77.050781 60.546875 C 77.472656 60.640625 77.898438 60.695312 78.332031 60.710938 C 81.949219 60.710938 84.605469 58 84.777344 54.117188 C 84.84375 52.785156 84.777344 51.464844 84.777344 50.054688 C 84.777344 49.558594 84.777344 49.046875 84.777344 48.523438 C 85.726562 49.226562 86.507812 50.085938 87.117188 51.101562 C 87.726562 52.113281 88.117188 53.207031 88.292969 54.375 C 88.449219 55.40625 88.449219 56.441406 88.285156 57.472656 C 88.121094 58.503906 87.800781 59.488281 87.332031 60.421875 C 86.859375 61.351562 86.257812 62.191406 85.523438 62.9375 C 84.789062 63.679688 83.960938 64.296875 83.03125 64.78125 C 82.105469 65.265625 81.128906 65.601562 80.097656 65.78125 C 79.066406 65.960938 78.035156 65.976562 77 65.835938 C 75.960938 65.691406 74.972656 65.394531 74.03125 64.941406 C 73.085938 64.488281 72.234375 63.902344 71.476562 63.1875 C 70.453125 62.246094 69.664062 61.140625 69.109375 59.863281 C 68.558594 58.589844 68.289062 57.257812 68.304688 55.867188 C 68.355469 54.445312 68.683594 53.089844 69.289062 51.800781 C 69.890625 50.511719 70.722656 49.390625 71.78125 48.4375 Z M 19.273438 40.605469 C 19.273438 30.789062 25.214844 24.898438 35.03125 24.859375 C 39.839844 24.859375 44.640625 24.859375 49.46875 24.859375 L 71.683594 24.859375 C 71.683594 25.8125 71.683594 26.6875 71.683594 27.589844 C 71.683594 30.5 71.683594 33.25 71.570312 36.03125 C 71.570312 36.476562 70.371094 37.105469 69.664062 37.484375 L 69.410156 37.617188 C 67.859375 38.441406 66.433594 39.441406 65.132812 40.621094 C 63.832031 41.800781 62.695312 43.121094 61.726562 44.582031 C 60.757812 46.042969 59.980469 47.605469 59.402344 49.261719 C 58.824219 50.914062 58.457031 52.617188 58.304688 54.367188 C 58.257812 55.050781 58.246094 55.738281 58.265625 56.425781 C 58.289062 57.113281 58.347656 57.800781 58.441406 58.480469 C 58.53125 59.164062 58.660156 59.839844 58.820312 60.507812 C 58.984375 61.175781 59.179688 61.835938 59.410156 62.484375 C 59.640625 63.132812 59.902344 63.769531 60.199219 64.390625 C 60.492188 65.011719 60.820312 65.617188 61.179688 66.207031 C 61.535156 66.792969 61.921875 67.363281 62.339844 67.910156 C 62.753906 68.460938 63.195312 68.984375 63.667969 69.488281 C 64.136719 69.992188 64.632812 70.46875 65.152344 70.921875 C 65.671875 71.375 66.210938 71.796875 66.773438 72.195312 C 67.335938 72.589844 67.917969 72.957031 68.519531 73.296875 C 69.121094 73.632812 69.734375 73.9375 70.367188 74.210938 C 71 74.484375 71.644531 74.726562 72.300781 74.933594 C 72.957031 75.140625 73.621094 75.3125 74.296875 75.453125 C 74.972656 75.59375 75.652344 75.699219 76.335938 75.765625 C 77.023438 75.835938 77.710938 75.871094 78.398438 75.871094 C 80.074219 75.878906 81.730469 75.683594 83.359375 75.28125 C 84.988281 74.882812 86.542969 74.289062 88.023438 73.503906 C 89.507812 72.71875 90.871094 71.765625 92.117188 70.640625 C 93.363281 69.519531 94.453125 68.261719 95.386719 66.867188 C 95.773438 66.289062 96.132812 65.691406 96.457031 65.074219 C 96.78125 64.460938 97.074219 63.828125 97.332031 63.179688 C 97.589844 62.535156 97.816406 61.875 98.003906 61.203125 C 98.195312 60.535156 98.347656 59.855469 98.464844 59.167969 C 98.585938 58.480469 98.667969 57.789062 98.710938 57.09375 C 98.757812 56.398438 98.765625 55.703125 98.738281 55.007812 C 98.710938 54.3125 98.648438 53.617188 98.546875 52.929688 C 98.445312 52.238281 98.308594 51.558594 98.136719 50.882812 C 97.964844 50.207031 97.757812 49.542969 97.515625 48.886719 C 97.273438 48.234375 97 47.597656 96.6875 46.972656 C 96.378906 46.347656 96.039062 45.742188 95.664062 45.152344 C 95.292969 44.5625 94.890625 43.996094 94.457031 43.449219 C 94.023438 42.902344 93.5625 42.378906 93.078125 41.882812 C 92.589844 41.382812 92.074219 40.914062 91.539062 40.46875 C 91 40.023438 90.441406 39.609375 89.863281 39.222656 C 89.28125 38.839844 88.679688 38.484375 88.0625 38.160156 C 85.445312 36.761719 84.605469 35.308594 84.882812 32.453125 C 85.011719 30.683594 85.039062 28.914062 84.96875 27.144531 C 84.96875 26.429688 84.96875 25.695312 84.96875 24.964844 L 289.597656 24.964844 C 289.597656 25.914062 289.597656 26.773438 289.597656 27.667969 C 289.597656 30.386719 289.597656 32.957031 289.476562 35.554688 C 289.476562 36.144531 288.40625 36.960938 287.410156 37.457031 C 277.105469 43.082031 273.125 54.8125 278.238281 64.757812 C 278.660156 65.585938 279.136719 66.378906 279.671875 67.144531 C 280.203125 67.90625 280.785156 68.628906 281.417969 69.3125 C 282.050781 69.992188 282.726562 70.628906 283.449219 71.214844 C 284.167969 71.804688 284.925781 72.339844 285.722656 72.824219 C 286.515625 73.308594 287.339844 73.734375 288.195312 74.105469 C 289.050781 74.476562 289.925781 74.785156 290.820312 75.03125 C 291.71875 75.28125 292.628906 75.464844 293.550781 75.589844 C 294.472656 75.710938 295.398438 75.769531 296.332031 75.765625 C 297.53125 75.765625 298.722656 75.660156 299.90625 75.449219 C 301.089844 75.238281 302.246094 74.925781 303.371094 74.511719 C 304.5 74.097656 305.582031 73.585938 306.617188 72.980469 C 307.65625 72.375 308.632812 71.683594 309.546875 70.90625 C 310.460938 70.125 311.296875 69.273438 312.0625 68.347656 C 312.824219 67.417969 313.5 66.433594 314.089844 65.386719 C 314.675781 64.339844 315.167969 63.25 315.566406 62.117188 C 315.960938 60.984375 316.253906 59.824219 316.441406 58.636719 C 317.878906 50.472656 313.339844 41.710938 305.664062 37.808594 C 303.414062 36.667969 302.71875 35.46875 302.902344 33.050781 C 303.035156 31.148438 303.007812 29.246094 302.976562 27.34375 C 302.976562 26.554688 302.976562 25.757812 302.976562 24.945312 L 303.644531 24.886719 C 304.1875 24.839844 304.664062 24.792969 305.140625 24.792969 L 324.832031 24.792969 C 329.75 24.792969 334.679688 24.792969 339.609375 24.792969 C 350.332031 24.792969 356.019531 30.5 356.039062 41.3125 C 356.039062 54.898438 356.039062 68.714844 356.039062 82.074219 L 356.039062 89.988281 C 356.039062 90.53125 355.988281 91.09375 355.953125 91.691406 C 355.953125 91.921875 355.953125 92.160156 355.902344 92.40625 L 19.273438 92.40625 L 19.273438 71.636719 C 19.273438 68.410156 19.273438 65.183594 19.273438 61.957031 C 19.253906 54.964844 19.242188 47.722656 19.273438 40.605469 Z M 356.007812 348.3125 C 356.007812 359.066406 350.085938 364.992188 339.324219 364.992188 C 238.84375 364.992188 137.734375 365.050781 38.804688 365.050781 L 35.414062 365.050781 C 25.15625 365.050781 19.273438 359.226562 19.273438 349.066406 C 19.273438 286.949219 19.273438 224.835938 19.273438 162.722656 L 19.273438 102.910156 L 356.007812 102.910156 L 356.007812 164.332031 C 356.015625 225.664062 356.015625 286.992188 356.007812 348.3125 Z M 356.007812 348.3125 " fill-opacity="1" fill-rule="nonzero"/></g><path fill="#a72703" d="M 356.960938 74.128906 L 356.960938 90.074219 C 356.960938 90.542969 356.960938 91.027344 356.902344 91.472656 L 356.902344 91.855469 C 356.902344 91.96875 356.902344 92.09375 356.902344 92.207031 L 356.902344 92.570312 L 356.835938 93.445312 L 18.320312 93.445312 L 18.320312 66.800781 C 18.320312 65.183594 18.320312 63.574219 18.320312 61.957031 C 18.320312 54.992188 18.320312 47.78125 18.320312 40.605469 C 18.378906 30.140625 24.625 23.945312 35.03125 23.90625 C 39.839844 23.90625 44.640625 23.90625 49.46875 23.90625 L 72.636719 23.90625 L 72.636719 24.859375 C 72.636719 25.8125 72.636719 26.675781 72.636719 27.582031 L 72.636719 27.601562 C 72.636719 30.511719 72.636719 33.25 72.523438 36.050781 C 72.464844 36.945312 71.570312 37.523438 70.199219 38.246094 L 70.113281 38.292969 L 69.875 38.417969 C 68.394531 39.203125 67.03125 40.160156 65.789062 41.289062 C 64.546875 42.414062 63.460938 43.679688 62.535156 45.078125 C 61.609375 46.476562 60.871094 47.96875 60.320312 49.550781 C 59.769531 51.132812 59.421875 52.761719 59.277344 54.433594 C 59.230469 55.085938 59.21875 55.738281 59.238281 56.394531 C 59.257812 57.050781 59.3125 57.703125 59.402344 58.351562 C 59.492188 59 59.613281 59.644531 59.765625 60.28125 C 59.917969 60.917969 60.105469 61.546875 60.324219 62.164062 C 60.542969 62.78125 60.792969 63.386719 61.074219 63.980469 C 61.355469 64.570312 61.664062 65.148438 62.003906 65.707031 C 62.347656 66.269531 62.714844 66.808594 63.109375 67.332031 C 63.503906 67.855469 63.925781 68.355469 64.375 68.835938 C 64.820312 69.3125 65.292969 69.769531 65.785156 70.199219 C 66.28125 70.628906 66.796875 71.035156 67.332031 71.414062 C 67.867188 71.789062 68.421875 72.140625 68.992188 72.460938 C 69.5625 72.78125 70.152344 73.074219 70.753906 73.335938 C 71.355469 73.597656 71.96875 73.824219 72.59375 74.023438 C 73.21875 74.222656 73.851562 74.386719 74.492188 74.519531 C 75.136719 74.652344 75.78125 74.753906 76.4375 74.820312 C 77.089844 74.886719 77.742188 74.917969 78.398438 74.917969 C 79.996094 74.925781 81.570312 74.738281 83.121094 74.359375 C 84.675781 73.976562 86.15625 73.414062 87.566406 72.667969 C 88.980469 71.921875 90.28125 71.011719 91.46875 69.945312 C 92.65625 68.875 93.695312 67.679688 94.585938 66.355469 C 94.957031 65.804688 95.296875 65.234375 95.605469 64.648438 C 95.914062 64.058594 96.191406 63.457031 96.4375 62.84375 C 96.683594 62.226562 96.898438 61.597656 97.078125 60.960938 C 97.257812 60.320312 97.40625 59.675781 97.515625 59.023438 C 97.628906 58.367188 97.707031 57.710938 97.75 57.046875 C 97.792969 56.386719 97.800781 55.722656 97.777344 55.0625 C 97.75 54.398438 97.6875 53.738281 97.59375 53.082031 C 97.496094 52.425781 97.367188 51.773438 97.203125 51.132812 C 97.039062 50.488281 96.84375 49.855469 96.613281 49.234375 C 96.382812 48.613281 96.121094 48.003906 95.824219 47.410156 C 95.53125 46.816406 95.207031 46.238281 94.851562 45.675781 C 94.496094 45.117188 94.113281 44.574219 93.699219 44.054688 C 93.289062 43.535156 92.851562 43.039062 92.386719 42.5625 C 91.921875 42.089844 91.433594 41.640625 90.921875 41.214844 C 90.414062 40.792969 89.878906 40.398438 89.328125 40.03125 C 88.773438 39.664062 88.203125 39.324219 87.617188 39.019531 C 84.65625 37.4375 83.625 35.582031 83.941406 32.414062 C 84.0625 30.699219 84.085938 28.984375 84.015625 27.265625 L 84.015625 27.21875 C 84.015625 26.496094 84.015625 25.753906 84.015625 25.011719 L 84.015625 24.058594 L 290.550781 24.058594 L 290.550781 25.011719 C 290.550781 25.90625 290.550781 26.789062 290.550781 27.703125 L 290.550781 28.113281 C 290.550781 30.710938 290.550781 33.167969 290.417969 35.660156 C 290.339844 36.914062 288.597656 37.988281 287.855469 38.390625 C 278.019531 43.757812 274.25 54.945312 279.074219 64.421875 C 279.480469 65.210938 279.933594 65.964844 280.441406 66.691406 C 280.949219 67.414062 281.503906 68.101562 282.105469 68.75 C 282.707031 69.398438 283.351562 70 284.035156 70.558594 C 284.722656 71.121094 285.441406 71.628906 286.199219 72.089844 C 286.953125 72.546875 287.738281 72.953125 288.550781 73.304688 C 289.363281 73.65625 290.195312 73.953125 291.046875 74.1875 C 291.898438 74.425781 292.761719 74.601562 293.640625 74.71875 C 294.515625 74.835938 295.398438 74.894531 296.285156 74.890625 C 297.261719 74.886719 298.238281 74.816406 299.207031 74.671875 C 300.214844 74.515625 301.203125 74.28125 302.175781 73.96875 C 303.148438 73.65625 304.089844 73.273438 305 72.8125 C 305.910156 72.355469 306.777344 71.828125 307.605469 71.230469 C 308.433594 70.636719 309.210938 69.980469 309.9375 69.265625 C 310.664062 68.546875 311.328125 67.777344 311.929688 66.957031 C 312.535156 66.136719 313.074219 65.273438 313.542969 64.367188 C 314.011719 63.460938 314.40625 62.527344 314.726562 61.558594 C 315.050781 60.589844 315.292969 59.605469 315.460938 58.601562 C 316.824219 50.835938 312.507812 42.5 305.1875 38.78125 C 302.585938 37.457031 301.703125 35.925781 301.910156 33.070312 C 302.035156 31.234375 302.007812 29.398438 301.976562 27.457031 L 301.976562 27.410156 C 301.976562 26.621094 301.976562 25.8125 301.976562 24.992188 L 301.976562 24.117188 L 302.855469 24.042969 L 303.5 23.984375 L 303.683594 23.984375 C 304.160156 23.984375 304.632812 23.898438 305.074219 23.898438 L 324.765625 23.898438 C 329.683594 23.898438 334.613281 23.898438 339.554688 23.898438 C 350.734375 23.898438 356.902344 30.140625 356.921875 41.367188 C 356.96875 52.28125 356.96875 63.386719 356.960938 74.128906 Z M 356.960938 74.128906 " fill-opacity="1" fill-rule="nonzero"/><path fill="#ffe797" d="M 356.96875 164.332031 C 356.96875 225.664062 356.96875 286.992188 356.96875 348.3125 C 356.96875 359.523438 350.53125 365.945312 339.335938 365.945312 C 239.347656 365.945312 138.257812 366.003906 38.8125 366.003906 L 35.414062 366.003906 C 24.558594 366.003906 18.320312 359.828125 18.320312 349.066406 C 18.320312 286.949219 18.320312 224.835938 18.320312 162.722656 L 18.320312 101.960938 L 356.960938 101.960938 L 356.960938 164.332031 Z M 356.96875 164.332031 " fill-opacity="1" fill-rule="nonzero"/><g fill="#000000" fill-opacity="1"><g transform="translate(68.505279, 197.801581)"><g><path d="M 58.6875 -47.90625 L 76.65625 -49.90625 C 80.113281 -50.164062 82.640625 -50.566406 84.234375 -51.109375 C 87.429688 -51.898438 89.5625 -53.09375 90.625 -54.6875 C 91.15625 -55.757812 91.421875 -57.226562 91.421875 -59.09375 C 94.617188 -56.957031 96.75 -52.296875 97.8125 -45.109375 C 98.613281 -38.992188 96.75 -34.070312 92.21875 -30.34375 C 89.03125 -27.675781 81.578125 -25.679688 69.859375 -24.359375 C 61.078125 -23.285156 53.09375 -22.75 45.90625 -22.75 C 38.1875 -22.75 31.269531 -23.285156 25.15625 -24.359375 C 14.507812 -25.953125 7.585938 -28.878906 4.390625 -33.140625 C 3.054688 -35.003906 2.257812 -37.265625 2 -39.921875 C 1.726562 -42.585938 2.125 -44.847656 3.1875 -46.703125 C 5.582031 -50.171875 9.707031 -51.640625 15.5625 -51.109375 C 24.082031 -50.035156 32.46875 -49.101562 40.71875 -48.3125 C 49.238281 -47.78125 55.226562 -47.644531 58.6875 -47.90625 Z M 58.6875 -47.90625 "/></g></g></g><g fill="#000000" fill-opacity="1"><g transform="translate(170.704491, 197.801581)"><g/></g></g><g fill="#000000" fill-opacity="1"><g transform="translate(205.037039, 197.801581)"><g><path d="M 90.625 -73.453125 L 91.828125 -55.890625 L 93.015625 -36.734375 L 92.625 -12.78125 C 92.351562 -5.320312 91.6875 -0.53125 90.625 1.59375 C 90.351562 2.394531 89.554688 2.925781 88.234375 3.1875 C 87.171875 3.457031 86.238281 3.59375 85.4375 3.59375 L 73.0625 6.390625 C 68.53125 7.453125 61.210938 7.847656 51.109375 7.578125 C 44.984375 7.578125 38.328125 7.578125 31.140625 7.578125 C 22.085938 7.847656 16.628906 6.785156 14.765625 4.390625 C 13.441406 2.523438 12.644531 0 12.375 -3.1875 C 12.113281 -7.1875 11.984375 -13.707031 11.984375 -22.75 C 11.710938 -33.394531 11.3125 -44.175781 10.78125 -55.09375 C 10.25 -62.007812 9.316406 -69.195312 7.984375 -76.65625 C 21.023438 -76.382812 32.335938 -76.78125 41.921875 -77.84375 C 54.160156 -79.175781 62.410156 -79.84375 66.671875 -79.84375 C 71.992188 -79.84375 76.382812 -79.578125 79.84375 -79.046875 C 83.039062 -78.515625 85.570312 -77.847656 87.4375 -77.046875 C 89.5625 -75.984375 90.625 -74.785156 90.625 -73.453125 Z M 29.140625 -52.703125 C 29.410156 -50.304688 30.875 -48.84375 33.53125 -48.3125 C 35.664062 -47.78125 38.726562 -47.78125 42.71875 -48.3125 C 47.238281 -48.84375 50.832031 -49.238281 53.5 -49.5 C 56.6875 -49.769531 59.347656 -49.238281 61.484375 -47.90625 C 64.140625 -46.3125 66.132812 -44.316406 67.46875 -41.921875 C 69.0625 -38.992188 69.0625 -36.332031 67.46875 -33.9375 C 65.875 -30.738281 62.546875 -28.472656 57.484375 -27.140625 C 54.828125 -26.347656 50.703125 -25.816406 45.109375 -25.546875 C 40.316406 -25.816406 37.390625 -25.953125 36.328125 -25.953125 C 32.597656 -25.953125 30.734375 -24.351562 30.734375 -21.15625 C 30.734375 -14.5 34.992188 -10.507812 43.515625 -9.1875 C 52.566406 -7.851562 60.148438 -8.914062 66.265625 -12.375 C 69.734375 -14.238281 72 -17.300781 73.0625 -21.5625 C 73.851562 -24.488281 74.117188 -28.476562 73.859375 -33.53125 C 73.585938 -40.988281 73.054688 -47.113281 72.265625 -51.90625 C 71.460938 -56.695312 69.597656 -60.019531 66.671875 -61.875 C 64.273438 -63.476562 61.210938 -64.410156 57.484375 -64.671875 C 56.421875 -64.671875 53.226562 -64.671875 47.90625 -64.671875 C 43.644531 -64.671875 40.582031 -64.539062 38.71875 -64.28125 C 34.726562 -63.75 32.066406 -62.414062 30.734375 -60.28125 C 29.410156 -57.625 28.878906 -55.097656 29.140625 -52.703125 Z M 29.140625 -52.703125 "/></g></g></g><g fill="#000000" fill-opacity="1"><g transform="translate(68.505279, 340.301572)"><g><path d="M 4.390625 -73.859375 C 12.378906 -71.722656 15.835938 -75.316406 14.765625 -84.640625 C 18.492188 -83.835938 21.15625 -82.109375 22.75 -79.453125 C 23.820312 -77.585938 24.890625 -76.65625 25.953125 -76.65625 C 26.742188 -76.65625 28.207031 -76.921875 30.34375 -77.453125 C 36.726562 -78.785156 40.585938 -77.585938 41.921875 -73.859375 C 43.253906 -70.128906 41.125 -66.535156 35.53125 -63.078125 C 31.539062 -60.421875 26.882812 -59.09375 21.5625 -59.09375 C 15.96875 -58.820312 11.175781 -60.015625 7.1875 -62.671875 C 3.195312 -65.335938 2.265625 -69.066406 4.390625 -73.859375 Z M 4.796875 -22.359375 C 12.515625 -21.554688 20.628906 -21.820312 29.140625 -23.15625 C 32.066406 -23.6875 34.460938 -23.550781 36.328125 -22.75 C 38.992188 -21.6875 40.191406 -19.425781 39.921875 -15.96875 C 39.390625 -10.914062 39.257812 -6.925781 39.53125 -4 C 39.789062 -1.601562 39.921875 0.789062 39.921875 3.1875 C 40.191406 7.71875 38.992188 10.25 36.328125 10.78125 C 33.398438 10.78125 30.609375 10.644531 27.953125 10.375 C 22.359375 10.375 18.628906 10.375 16.765625 10.375 C 13.035156 10.113281 10.375 9.453125 8.78125 8.390625 C 7.976562 7.585938 7.445312 6.65625 7.1875 5.59375 C 7.1875 4.789062 7.1875 3.59375 7.1875 2 C 7.445312 -7.582031 6.648438 -15.703125 4.796875 -22.359375 Z M 18.359375 -36.734375 L 29.546875 -38.328125 C 34.066406 -38.859375 37.257812 -37.394531 39.125 -33.9375 C 40.988281 -30.476562 39.390625 -28.082031 34.328125 -26.75 C 31.398438 -26.21875 27.804688 -25.953125 23.546875 -25.953125 C 18.765625 -25.953125 15.304688 -26.484375 13.171875 -27.546875 C 9.710938 -29.410156 7.316406 -32.601562 5.984375 -37.125 C 11.835938 -36.59375 15.960938 -36.460938 18.359375 -36.734375 Z M 6.78125 -54.296875 C 11.570312 -53.492188 17.296875 -53.894531 23.953125 -55.5 C 29.015625 -56.820312 33.539062 -56.285156 37.53125 -53.890625 C 39.125 -52.828125 39.65625 -51.363281 39.125 -49.5 C 38.851562 -47.90625 37.921875 -46.578125 36.328125 -45.515625 C 34.203125 -44.179688 29.675781 -43.378906 22.75 -43.109375 C 15.300781 -42.847656 10.113281 -44.976562 7.1875 -49.5 C 6.382812 -50.570312 6.25 -52.171875 6.78125 -54.296875 Z M 17.171875 -7.1875 L 17.171875 -5.1875 C 17.171875 -2.257812 17.703125 -0.128906 18.765625 1.203125 C 19.828125 2.523438 21.820312 2.921875 24.75 2.390625 C 27.945312 1.859375 29.546875 -0.535156 29.546875 -4.796875 C 29.546875 -9.847656 26.75 -12.242188 21.15625 -11.984375 C 18.5 -11.710938 17.171875 -10.113281 17.171875 -7.1875 Z M 48.703125 -21.953125 L 48.3125 -31.140625 L 47.109375 -37.53125 C 48.972656 -37.257812 51.234375 -37.125 53.890625 -37.125 C 59.210938 -36.863281 61.875 -37.394531 61.875 -38.71875 C 61.875 -40.050781 60.144531 -40.71875 56.6875 -40.71875 C 51.632812 -40.71875 47.378906 -42.445312 43.921875 -45.90625 C 42.847656 -47.238281 41.78125 -49.238281 40.71875 -51.90625 C 42.050781 -51.632812 43.914062 -51.367188 46.3125 -51.109375 C 49.238281 -50.835938 50.96875 -51.101562 51.5 -51.90625 C 52.5625 -54.03125 52.960938 -55.492188 52.703125 -56.296875 C 52.703125 -56.828125 51.898438 -57.625 50.296875 -58.6875 C 48.441406 -60.019531 46.976562 -61.882812 45.90625 -64.28125 C 50.96875 -62.945312 53.5 -64.007812 53.5 -67.46875 C 53.5 -68.269531 53.363281 -68.800781 53.09375 -69.0625 C 52.5625 -69.332031 51.898438 -69.734375 51.109375 -70.265625 L 45.109375 -73.859375 L 42.71875 -78.25 C 46.445312 -77.976562 48.972656 -78.113281 50.296875 -78.65625 C 52.160156 -79.1875 53.359375 -80.914062 53.890625 -83.84375 L 57.890625 -82.640625 L 60.6875 -80.640625 C 61.75 -79.847656 64.273438 -79.984375 68.265625 -81.046875 C 69.597656 -81.304688 70.265625 -82.898438 70.265625 -85.828125 L 74.65625 -85.03125 L 77.453125 -83.4375 L 79.84375 -83.046875 L 82.234375 -83.4375 C 85.703125 -83.707031 88.632812 -82.242188 91.03125 -79.046875 C 93.425781 -76.117188 93.425781 -73.859375 91.03125 -72.265625 C 89.425781 -71.734375 87.5625 -71.46875 85.4375 -71.46875 C 83.039062 -71.195312 81.707031 -70.394531 81.4375 -69.0625 C 81.4375 -67.738281 82.503906 -67.078125 84.640625 -67.078125 C 86.765625 -67.078125 88.09375 -66.144531 88.625 -64.28125 C 89.15625 -62.414062 88.09375 -60.414062 85.4375 -58.28125 C 83.039062 -56.425781 82.242188 -55.226562 83.046875 -54.6875 C 83.835938 -54.15625 85.566406 -54.15625 88.234375 -54.6875 C 91.953125 -55.488281 94.613281 -55.488281 96.21875 -54.6875 C 99.40625 -52.832031 100.203125 -50.570312 98.609375 -47.90625 C 97.804688 -46.3125 96.476562 -45.25 94.625 -44.71875 C 89.03125 -42.851562 83.304688 -41.785156 77.453125 -41.515625 C 75.859375 -41.253906 74.789062 -40.722656 74.25 -39.921875 C 73.71875 -39.117188 74.117188 -38.585938 75.453125 -38.328125 C 76.515625 -38.054688 78.113281 -38.054688 80.25 -38.328125 C 82.644531 -38.585938 84.238281 -38.71875 85.03125 -38.71875 C 86.894531 -38.71875 88.492188 -38.320312 89.828125 -37.53125 C 91.953125 -36.46875 93.148438 -35.003906 93.421875 -33.140625 C 93.953125 -28.078125 94.21875 -22.882812 94.21875 -17.5625 C 95.550781 -17.832031 96.613281 -18.363281 97.40625 -19.15625 C 98.476562 -17.5625 99.015625 -16.234375 99.015625 -15.171875 C 98.742188 -13.046875 98.472656 -11.582031 98.203125 -10.78125 C 97.671875 -8.914062 96.476562 -6.519531 94.625 -3.59375 L 93.8125 5.984375 C 93.550781 8.910156 92.085938 10.773438 89.421875 11.578125 C 88.097656 11.847656 86.238281 11.050781 83.84375 9.1875 L 75.859375 2.390625 C 79.316406 3.191406 81.175781 2.660156 81.4375 0.796875 C 81.707031 -1.597656 80.113281 -2.796875 76.65625 -2.796875 L 63.875 -2.390625 C 62.007812 -2.390625 60.679688 -1.328125 59.890625 0.796875 L 57.484375 8.78125 C 57.222656 9.582031 56.425781 10.25 55.09375 10.78125 C 54.03125 11.3125 53.097656 11.3125 52.296875 10.78125 C 49.898438 9.1875 48.703125 6.390625 48.703125 2.390625 C 48.703125 0.523438 48.703125 -0.671875 48.703125 -1.203125 C 48.703125 -2.523438 48.171875 -3.457031 47.109375 -4 L 44.3125 -5.1875 C 41.382812 -6.519531 40.453125 -9.710938 41.515625 -14.765625 C 44.710938 -13.441406 46.84375 -13.578125 47.90625 -15.171875 C 48.707031 -16.234375 48.972656 -18.492188 48.703125 -21.953125 Z M 58.6875 -13.578125 L 58.6875 -13.171875 L 63.484375 -12.375 L 63.875 -16.765625 C 60.414062 -16.765625 58.6875 -15.703125 58.6875 -13.578125 Z M 63.484375 -24.75 C 64.015625 -26.34375 63.613281 -28.070312 62.28125 -29.9375 C 59.351562 -28.34375 58.15625 -27.015625 58.6875 -25.953125 C 59.21875 -24.890625 60.816406 -24.488281 63.484375 -24.75 Z M 63.078125 -52.703125 L 66.671875 -52.296875 C 68.796875 -52.035156 70.394531 -52.4375 71.46875 -53.5 C 72.53125 -54.289062 72.257812 -54.957031 70.65625 -55.5 C 68.269531 -56.289062 66.007812 -56.019531 63.875 -54.6875 C 63.613281 -54.425781 63.347656 -54.03125 63.078125 -53.5 C 62.804688 -52.96875 62.804688 -52.703125 63.078125 -52.703125 Z M 64.28125 -65.078125 L 68.671875 -65.46875 C 71.066406 -65.738281 72 -66.539062 71.46875 -67.875 C 70.925781 -69.195312 69.859375 -69.859375 68.265625 -69.859375 L 64.28125 -69.859375 C 63.476562 -69.859375 62.941406 -69.0625 62.671875 -67.46875 C 62.410156 -65.875 62.945312 -65.078125 64.28125 -65.078125 Z M 81.4375 -14.765625 L 81.4375 -23.953125 C 81.4375 -25.546875 81.039062 -26.742188 80.25 -27.546875 C 79.445312 -28.078125 78.378906 -28.742188 77.046875 -29.546875 C 75.984375 -30.078125 74.65625 -29.8125 73.0625 -28.75 L 73.0625 -25.15625 C 78.113281 -23.820312 79.84375 -21.957031 78.25 -19.5625 C 74.789062 -18.226562 73.59375 -16.5 74.65625 -14.375 C 75.988281 -12.238281 78.25 -12.367188 81.4375 -14.765625 Z M 81.4375 -14.765625 "/></g></g></g><g fill="#000000" fill-opacity="1"><g transform="translate(170.704491, 340.301572)"><g/></g></g><g fill="#000000" fill-opacity="1"><g transform="translate(205.037039, 340.301572)"><g><path d="M 34.328125 -75.453125 L 32.734375 -74.25 L 27.140625 -68.265625 L 24.75 -66.265625 C 27.414062 -66.265625 30.34375 -66.132812 33.53125 -65.875 C 37.53125 -65.601562 40.191406 -64.804688 41.515625 -63.484375 C 42.316406 -62.679688 42.71875 -61.347656 42.71875 -59.484375 C 42.71875 -57.890625 42.582031 -56.425781 42.3125 -55.09375 C 42.3125 -53.757812 42.3125 -51.234375 42.3125 -47.515625 C 42.3125 -44.316406 42.179688 -41.785156 41.921875 -39.921875 C 41.390625 -37.265625 40.320312 -35.398438 38.71875 -34.328125 C 37.65625 -33.796875 35.394531 -33.265625 31.9375 -32.734375 L 34.328125 -31.546875 L 38.71875 -30.34375 C 40.320312 -30.070312 41.253906 -28.078125 41.515625 -24.359375 C 41.785156 -22.222656 41.785156 -19.957031 41.515625 -17.5625 C 41.515625 -11.175781 41.25 -7.1875 40.71875 -5.59375 C 39.925781 -2.664062 37.398438 -0.9375 33.140625 -0.40625 L 22.359375 0.796875 L 20.359375 1.59375 L 18.359375 3.1875 L 17.171875 4.796875 C 15.566406 6.921875 13.566406 7.71875 11.171875 7.1875 C 9.316406 6.65625 7.851562 5.320312 6.78125 3.1875 C 5.71875 1.0625 5.1875 -1.195312 5.1875 -3.59375 L 4.796875 -59.09375 L 4 -63.078125 C 6.925781 -63.078125 9.1875 -63.742188 10.78125 -65.078125 C 15.039062 -69.066406 18.898438 -74.390625 22.359375 -81.046875 C 23.148438 -82.378906 23.148438 -83.84375 22.359375 -85.4375 C 26.878906 -83.570312 30.335938 -81.84375 32.734375 -80.25 C 33.796875 -79.445312 34.460938 -78.644531 34.734375 -77.84375 C 35.265625 -76.78125 35.128906 -75.984375 34.328125 -75.453125 Z M 16.765625 -48.703125 C 16.503906 -45.773438 16.769531 -44.046875 17.5625 -43.515625 C 18.625 -43.242188 20.488281 -42.976562 23.15625 -42.71875 C 25.8125 -42.71875 27.410156 -42.71875 27.953125 -42.71875 C 29.546875 -42.976562 30.609375 -43.910156 31.140625 -45.515625 C 32.203125 -48.441406 31.9375 -50.835938 30.34375 -52.703125 C 29.007812 -54.296875 25.945312 -54.828125 21.15625 -54.296875 C 18.5 -54.023438 17.035156 -52.160156 16.765625 -48.703125 Z M 31.9375 -13.96875 L 32.34375 -15.5625 C 32.34375 -16.894531 31.941406 -18.226562 31.140625 -19.5625 C 30.335938 -20.894531 29.273438 -21.828125 27.953125 -22.359375 C 23.160156 -23.421875 20.226562 -22.085938 19.15625 -18.359375 C 18.09375 -14.367188 19.023438 -12.242188 21.953125 -11.984375 L 27.953125 -11.171875 C 29.546875 -10.910156 30.609375 -10.910156 31.140625 -11.171875 C 31.671875 -11.441406 31.9375 -12.375 31.9375 -13.96875 Z M 85.828125 -4.390625 C 87.429688 -8.910156 88.234375 -14.234375 88.234375 -20.359375 C 88.234375 -24.085938 88.097656 -27.816406 87.828125 -31.546875 C 87.566406 -33.929688 87.171875 -36.59375 86.640625 -39.53125 C 85.835938 -41.914062 84.90625 -43.378906 83.84375 -43.921875 C 82.769531 -44.179688 81.703125 -44.179688 80.640625 -43.921875 C 79.316406 -43.648438 78.519531 -42.984375 78.25 -41.921875 C 77.445312 -39.523438 77.179688 -34.203125 77.453125 -25.953125 C 77.984375 -16.367188 78.382812 -9.316406 78.65625 -4.796875 C 78.914062 -1.328125 78.914062 1.734375 78.65625 4.390625 C 78.113281 8.910156 76.25 11.171875 73.0625 11.171875 C 69.070312 11.171875 66.941406 8.507812 66.671875 3.1875 L 65.46875 -35.9375 C 65.46875 -39.125 64.535156 -40.984375 62.671875 -41.515625 C 61.347656 -41.785156 60.15625 -41.519531 59.09375 -40.71875 C 57.226562 -39.382812 56.425781 -37.921875 56.6875 -36.328125 L 57.484375 -27.546875 L 57.484375 -18.359375 C 57.484375 -14.640625 57.75 -11.046875 58.28125 -7.578125 C 58.820312 -0.929688 57.359375 3.191406 53.890625 4.796875 C 52.296875 5.859375 50.566406 5.457031 48.703125 3.59375 C 47.109375 2 46.3125 0.269531 46.3125 -1.59375 C 46.039062 -8.519531 45.90625 -15.707031 45.90625 -23.15625 L 45.90625 -42.3125 C 45.90625 -46.84375 45.90625 -49.640625 45.90625 -50.703125 C 45.90625 -52.566406 45.507812 -54.429688 44.71875 -56.296875 L 49.109375 -56.6875 L 62.28125 -58.6875 C 63.875 -58.957031 64.804688 -59.890625 65.078125 -61.484375 C 65.335938 -62.816406 64.9375 -63.878906 63.875 -64.671875 C 57.75 -66.273438 52.828125 -68.269531 49.109375 -70.65625 C 45.378906 -73.050781 42.71875 -75.984375 41.125 -79.453125 C 40.851562 -80.242188 40.71875 -81.441406 40.71875 -83.046875 C 40.988281 -84.367188 40.988281 -85.695312 40.71875 -87.03125 C 47.644531 -84.375 53.101562 -82.773438 57.09375 -82.234375 C 64.28125 -81.441406 70.535156 -81.578125 75.859375 -82.640625 L 89.421875 -85.4375 C 92.085938 -85.96875 94.085938 -85.300781 95.421875 -83.4375 C 96.742188 -81.3125 96.609375 -79.179688 95.015625 -77.046875 C 93.421875 -74.648438 90.09375 -72.390625 85.03125 -70.265625 C 81.039062 -68.671875 78.515625 -67.609375 77.453125 -67.078125 C 76.921875 -66.003906 77.050781 -64.535156 77.84375 -62.671875 C 78.914062 -60.816406 79.847656 -59.890625 80.640625 -59.890625 C 82.503906 -59.617188 84.898438 -59.484375 87.828125 -59.484375 C 90.753906 -59.222656 93.019531 -58.554688 94.625 -57.484375 C 96.476562 -56.421875 97.539062 -53.757812 97.8125 -49.5 L 99.015625 -29.140625 C 99.273438 -23.554688 99.40625 -17.96875 99.40625 -12.375 C 99.144531 -2.53125 98.210938 3.191406 96.609375 4.796875 C 95.546875 5.859375 93.953125 6.390625 91.828125 6.390625 C 89.691406 6.648438 88.09375 6.117188 87.03125 4.796875 L 84.640625 2 L 81.4375 -0.796875 C 83.570312 -0.796875 85.035156 -1.992188 85.828125 -4.390625 Z M 85.828125 -4.390625 "/></g></g></g><g fill="#ff5757" fill-opacity="1"><g transform="translate(114.972652, 77.772884)"><g><path d="M 2.515625 -2.515625 L 2.515625 -41.578125 C 2.515625 -42.273438 2.757812 -42.867188 3.25 -43.359375 C 3.738281 -43.847656 4.335938 -44.09375 5.046875 -44.09375 L 24.921875 -44.09375 C 25.429688 -44.09375 25.8125 -43.867188 26.0625 -43.421875 C 26.320312 -42.984375 26.453125 -42.019531 26.453125 -40.53125 C 26.453125 -39.039062 26.320312 -38.070312 26.0625 -37.625 C 25.8125 -37.175781 25.429688 -36.953125 24.921875 -36.953125 L 10.84375 -36.953125 L 10.84375 -25.625 L 21.765625 -25.625 C 22.285156 -25.625 22.671875 -25.398438 22.921875 -24.953125 C 23.179688 -24.515625 23.3125 -23.546875 23.3125 -22.046875 C 23.3125 -20.554688 23.179688 -19.585938 22.921875 -19.140625 C 22.671875 -18.703125 22.285156 -18.484375 21.765625 -18.484375 L 10.84375 -18.484375 L 10.84375 -7.140625 L 24.921875 -7.140625 C 25.429688 -7.140625 25.8125 -6.914062 26.0625 -6.46875 C 26.320312 -6.03125 26.453125 -5.0625 26.453125 -3.5625 C 26.453125 -2.070312 26.320312 -1.101562 26.0625 -0.65625 C 25.8125 -0.21875 25.429688 0 24.921875 0 L 5.046875 0 C 4.335938 0 3.738281 -0.242188 3.25 -0.734375 C 2.757812 -1.222656 2.515625 -1.816406 2.515625 -2.515625 Z M 2.515625 -2.515625 "/></g></g></g><g fill="#ff5757" fill-opacity="1"><g transform="translate(142.831129, 77.772884)"><g><path d="M 0.625 -43.328125 C 0.625 -43.835938 0.914062 -44.195312 1.5 -44.40625 C 2.082031 -44.625 3.144531 -44.734375 4.6875 -44.734375 C 6.363281 -44.734375 7.503906 -44.566406 8.109375 -44.234375 C 8.722656 -43.910156 9.078125 -43.304688 9.171875 -42.421875 L 14.84375 -7.140625 L 20.4375 -42.421875 C 20.53125 -43.304688 20.878906 -43.910156 21.484375 -44.234375 C 22.097656 -44.566406 23.242188 -44.734375 24.921875 -44.734375 C 26.460938 -44.734375 27.523438 -44.625 28.109375 -44.40625 C 28.691406 -44.195312 28.984375 -43.835938 28.984375 -43.328125 L 28.984375 -42.984375 L 21.421875 -2.09375 C 21.328125 -1.351562 21.09375 -0.785156 20.71875 -0.390625 C 20.34375 0.00390625 19.703125 0.269531 18.796875 0.40625 C 17.890625 0.550781 16.546875 0.625 14.765625 0.625 C 12.992188 0.625 11.648438 0.550781 10.734375 0.40625 C 9.828125 0.269531 9.195312 0.00390625 8.84375 -0.390625 C 8.5 -0.785156 8.257812 -1.351562 8.125 -2.09375 L 0.625 -42.984375 Z M 0.625 -43.328125 "/></g></g></g><g fill="#ff5757" fill-opacity="1"><g transform="translate(172.43951, 77.772884)"><g><path d="M 2.515625 -2.515625 L 2.515625 -41.578125 C 2.515625 -42.273438 2.757812 -42.867188 3.25 -43.359375 C 3.738281 -43.847656 4.335938 -44.09375 5.046875 -44.09375 L 24.921875 -44.09375 C 25.429688 -44.09375 25.8125 -43.867188 26.0625 -43.421875 C 26.320312 -42.984375 26.453125 -42.019531 26.453125 -40.53125 C 26.453125 -39.039062 26.320312 -38.070312 26.0625 -37.625 C 25.8125 -37.175781 25.429688 -36.953125 24.921875 -36.953125 L 10.84375 -36.953125 L 10.84375 -25.625 L 21.765625 -25.625 C 22.285156 -25.625 22.671875 -25.398438 22.921875 -24.953125 C 23.179688 -24.515625 23.3125 -23.546875 23.3125 -22.046875 C 23.3125 -20.554688 23.179688 -19.585938 22.921875 -19.140625 C 22.671875 -18.703125 22.285156 -18.484375 21.765625 -18.484375 L 10.84375 -18.484375 L 10.84375 -7.140625 L 24.921875 -7.140625 C 25.429688 -7.140625 25.8125 -6.914062 26.0625 -6.46875 C 26.320312 -6.03125 26.453125 -5.0625 26.453125 -3.5625 C 26.453125 -2.070312 26.320312 -1.101562 26.0625 -0.65625 C 25.8125 -0.21875 25.429688 0 24.921875 0 L 5.046875 0 C 4.335938 0 3.738281 -0.242188 3.25 -0.734375 C 2.757812 -1.222656 2.515625 -1.816406 2.515625 -2.515625 Z M 2.515625 -2.515625 "/></g></g></g><g fill="#ff5757" fill-opacity="1"><g transform="translate(200.297987, 77.772884)"><g><path d="M 2.515625 -1.125 L 2.515625 -42.984375 C 2.515625 -43.628906 2.796875 -44.082031 3.359375 -44.34375 C 3.921875 -44.601562 5.066406 -44.734375 6.796875 -44.734375 C 8.191406 -44.734375 9.191406 -44.601562 9.796875 -44.34375 C 10.398438 -44.082031 10.820312 -43.628906 11.0625 -42.984375 C 13.25 -37.472656 15.207031 -32.664062 16.9375 -28.5625 C 18.664062 -24.457031 20.113281 -21.097656 21.28125 -18.484375 L 21.28125 -42.984375 C 21.28125 -43.628906 21.546875 -44.082031 22.078125 -44.34375 C 22.617188 -44.601562 23.753906 -44.734375 25.484375 -44.734375 C 27.253906 -44.734375 28.382812 -44.601562 28.875 -44.34375 C 29.363281 -44.082031 29.609375 -43.628906 29.609375 -42.984375 L 29.609375 -1.125 C 29.609375 -0.507812 29.335938 -0.0664062 28.796875 0.203125 C 28.265625 0.484375 27.113281 0.625 25.34375 0.625 C 23.9375 0.625 22.941406 0.484375 22.359375 0.203125 C 21.773438 -0.0664062 21.367188 -0.507812 21.140625 -1.125 L 10.84375 -25.125 L 10.84375 -1.125 C 10.84375 -0.507812 10.597656 -0.0664062 10.109375 0.203125 C 9.617188 0.484375 8.488281 0.625 6.71875 0.625 C 4.988281 0.625 3.851562 0.484375 3.3125 0.203125 C 2.78125 -0.0664062 2.515625 -0.507812 2.515625 -1.125 Z M 2.515625 -1.125 "/></g></g></g><g fill="#ff5757" fill-opacity="1"><g transform="translate(232.426231, 77.772884)"><g><path d="M 0.625 -40.53125 C 0.625 -42.019531 0.738281 -42.984375 0.96875 -43.421875 C 1.207031 -43.867188 1.609375 -44.09375 2.171875 -44.09375 L 26.1875 -44.09375 C 26.738281 -44.09375 27.128906 -43.867188 27.359375 -43.421875 C 27.597656 -42.984375 27.71875 -42.019531 27.71875 -40.53125 C 27.71875 -39.039062 27.597656 -38.0625 27.359375 -37.59375 C 27.128906 -37.125 26.738281 -36.890625 26.1875 -36.890625 L 18.34375 -36.890625 L 18.34375 -1.125 C 18.34375 -0.507812 18.082031 -0.0664062 17.5625 0.203125 C 17.050781 0.484375 15.910156 0.625 14.140625 0.625 C 12.410156 0.625 11.289062 0.484375 10.78125 0.203125 C 10.269531 -0.0664062 10.015625 -0.507812 10.015625 -1.125 L 10.015625 -36.890625 L 2.171875 -36.890625 C 1.609375 -36.890625 1.207031 -37.125 0.96875 -37.59375 C 0.738281 -38.0625 0.625 -39.039062 0.625 -40.53125 Z M 0.625 -40.53125 "/></g></g></g></svg>